<?xml version="1.0" encoding="UTF-8"?>
<svg version="1.1" xmlns="http://www.w3.org/2000/svg" width="318" height="337">
<path d="M0 0 C104.94 0 209.88 0 318 0 C318 111.21 318 222.42 318 337 C213.06 337 108.12 337 0 337 C0 225.79 0 114.58 0 0 Z " fill="#FEFEFE" transform="translate(0,0)"/>
<path d="M0 0 C1.45696289 -0.06550049 1.45696289 -0.06550049 2.94335938 -0.13232422 C9.50604504 -0.14250068 12.88543233 1.33192395 17.62817383 5.86914062 C19.0625 7.6875 19.0625 7.6875 19.8125 10.875 C18.91012748 14.25889695 17.81758715 15.56214706 15.0625 17.6875 C12.31372182 18.60375939 10.2999563 18.8970745 7.44140625 19.08203125 C-25.6427377 21.44662446 -58.54839685 29.58355798 -84.9375 50.6875 C-85.4826123 51.12046387 -86.02772461 51.55342773 -86.58935547 51.99951172 C-109.00503439 69.96331801 -124.62090577 94.17596036 -129.9375 122.6875 C-129.2775 122.6875 -128.6175 122.6875 -127.9375 122.6875 C-127.669375 121.9759375 -127.40125 121.264375 -127.125 120.53125 C-121.14208471 106.20374234 -110.50653659 93.84370529 -99.9375 82.6875 C-99.04546875 81.73101562 -98.1534375 80.77453125 -97.234375 79.7890625 C-71.8342068 53.09406839 -36.74297044 37.56978109 -0.125 35.46875 C7.68720422 35.27974506 15.20815065 35.93230464 22.9375 37 C23.79303467 37.11754639 24.64856934 37.23509277 25.5300293 37.35620117 C46.61813947 40.54766161 65.02129775 50.68655644 78.80859375 66.984375 C82.81507355 72.42619803 83.63676137 76.13605932 83.49609375 82.86328125 C83.0531376 85.74848214 82.66444951 86.85919628 80.625 88.875 C79.779375 89.473125 78.93375 90.07125 78.0625 90.6875 C77.7325 91.0175 77.4025 91.3475 77.0625 91.6875 C73.84584379 92.13783187 71.26968862 92.32500411 68.32421875 90.76953125 C63.38897599 86.90075474 60.38493153 81.7812348 57 76.58203125 C47.59374673 62.529544 30.76770247 57.60959236 15.0625 53.6875 C14.35786621 53.51009277 13.65323242 53.33268555 12.92724609 53.14990234 C6.01086117 52.03351978 -1.13463074 52.33905008 -8.12475586 52.2824707 C-10.10182355 52.26107352 -12.0788014 52.22719395 -14.05541992 52.17993164 C-43.13412456 51.49287909 -68.25920001 63.33426076 -89.34375 83.171875 C-90.97755076 84.75646489 -92.58603449 86.3680045 -94.15625 88.015625 C-95.9375 89.6875 -95.9375 89.6875 -97.9375 89.6875 C-98.18113281 90.23664063 -98.42476563 90.78578125 -98.67578125 91.3515625 C-100.2107329 94.19336154 -102.11346353 96.53509617 -104.125 99.0625 C-112.62005215 110.08590303 -118.98899216 122.45567591 -117.9375 136.6875 C-117.62434152 138.69075807 -117.2949205 140.69166391 -116.9375 142.6875 C-115.8753125 142.13320312 -114.813125 141.57890625 -113.71875 141.0078125 C-112.29188929 140.27560766 -110.86479327 139.54386127 -109.4375 138.8125 C-108.39335937 138.26529297 -108.39335937 138.26529297 -107.328125 137.70703125 C-94.29284851 131.068696 -78.50790307 130.32521538 -64.5625 134.75 C-61.97975009 135.64043684 -59.45496586 136.62720106 -56.9375 137.6875 C-56.32680664 137.94450684 -55.71611328 138.20151367 -55.08691406 138.46630859 C-43.07563977 143.68957763 -32.87025574 151.16505134 -23.9375 160.6875 C-22.27513809 162.35846033 -20.60774191 164.02441627 -18.9375 165.6875 C-17.82657172 166.79792583 -16.71590837 167.90861675 -15.60546875 169.01953125 C-15.03505859 169.58994141 -14.46464844 170.16035156 -13.87695312 170.74804688 C-11.23046875 173.39453125 -8.58398437 176.04101563 -5.9375 178.6875 C-12.59863802 169.32590062 -20.43187716 160.86375382 -28.79296875 152.9921875 C-29.9375 151.6875 -29.9375 151.6875 -29.9375 149.6875 C-19.50062085 151.47529874 -10.37398406 162.55907838 -2.9375 169.6875 C-2.43573242 170.16203613 -1.93396484 170.63657227 -1.41699219 171.12548828 C6.57409483 178.70802777 13.56698235 186.79225618 20.0625 195.6875 C20.47709473 196.25243164 20.89168945 196.81736328 21.31884766 197.39941406 C32.7520668 213.19656109 42.18417435 231.07929031 48.0625 249.6875 C48.47242188 250.94046875 48.88234375 252.1934375 49.3046875 253.484375 C51.6345839 261.18400761 52.43353561 268.58493004 52.5 276.625 C52.51015137 277.48891357 52.52030273 278.35282715 52.53076172 279.24291992 C52.39273239 289.33364143 49.00929568 296.68957628 43.0625 304.6875 C42.65644531 305.28304688 42.25039062 305.87859375 41.83203125 306.4921875 C34.5894094 316.1638733 19.9212667 324.21963504 8.07502556 325.9834137 C2.88116037 326.45033031 -2.32090118 326.41437482 -7.53125 326.38671875 C-9.21114603 326.39264969 -10.89103784 326.39990547 -12.57092285 326.40840149 C-16.07745516 326.42021143 -19.5833501 326.41370057 -23.08984375 326.39428711 C-26.64119025 326.37604889 -30.19093954 326.3827744 -33.7421875 326.41479492 C-70.78323355 326.74860885 -70.78323355 326.74860885 -86.93286133 320.4671936 C-89.96841451 319.28653126 -93.0678862 318.29865207 -96.15625 317.265625 C-98.25410072 316.50073803 -100.34795029 315.72478123 -102.4375 314.9375 C-103.56551025 314.51484863 -104.69352051 314.09219727 -105.85571289 313.65673828 C-131.67909284 303.80104265 -156.46731627 292.20951836 -168.80859375 265.82519531 C-184.15765095 231.21908363 -179.82398716 192.20872135 -166.60302734 157.67480469 C-158.99228764 138.38619439 -150.49153994 118.96743584 -138.9375 101.6875 C-137.7264305 99.77256104 -136.51805973 97.85591244 -135.3125 95.9375 C-134.18892979 94.18658167 -133.06396627 92.43655653 -131.9375 90.6875 C-131.37675781 89.80191406 -130.81601563 88.91632813 -130.23828125 88.00390625 C-129.70589844 87.17761719 -129.17351562 86.35132812 -128.625 85.5 C-128.15449219 84.76394531 -127.68398437 84.02789062 -127.19921875 83.26953125 C-126.78285156 82.74746094 -126.36648437 82.22539063 -125.9375 81.6875 C-125.2775 81.6875 -124.6175 81.6875 -123.9375 81.6875 C-123.669375 81.130625 -123.40125 80.57375 -123.125 80 C-121.82850504 77.47524666 -120.51273677 75.05035516 -118.9375 72.6875 C-118.2775 72.6875 -117.6175 72.6875 -116.9375 72.6875 C-116.2775 71.0375 -115.6175 69.3875 -114.9375 67.6875 C-114.2775 67.6875 -113.6175 67.6875 -112.9375 67.6875 C-112.68484375 67.11902344 -112.4321875 66.55054687 -112.171875 65.96484375 C-97.15894232 38.26693314 -55.51167981 14.57262166 -26.9375 4.6875 C-25.79667969 4.275 -24.65585938 3.8625 -23.48046875 3.4375 C-15.66057592 0.95444693 -8.17299794 0.2060093 0 0 Z " fill="#CDCDCD" transform="translate(203.9375,11.3125)"/>
<path d="M0 0 C13.33592606 9.3644702 25.39182498 21.71154084 35.75439453 34.23193359 C36.42083984 35.00923828 37.08728516 35.78654297 37.77392578 36.58740234 C43.98108044 44.01525903 49.44021617 51.18985533 49.12548828 61.22412109 C48.69332919 63.56232924 48.00948934 65.21194936 46.75439453 67.23193359 C41.42917212 70.78208187 35.95675439 69.63896314 29.84423828 68.50927734 C21.47663718 66.68753437 13.38935424 64.25371814 5.30126953 61.44677734 C1.97222193 60.30654188 -1.36999364 59.28653414 -4.74560547 58.29443359 C-23.95036262 52.40153134 -44.62967909 44.65073442 -55.30810547 26.48193359 C-58.97403439 18.93678534 -60.0600251 12.47390513 -58.24560547 4.23193359 C-55.81801974 -1.72119158 -51.8725477 -5.74664308 -46.24560547 -8.76806641 C-30.86698609 -15.22708655 -13.09247027 -8.64183427 0 0 Z " fill="#FEFEFE" transform="translate(152.24560546875,186.76806640625)"/>
<path d="M0 0 C0.79434511 6.36549526 -2.07994533 11.29313431 -4.625 16.9375 C-9.72399428 28.72054221 -13.31386755 40.45781001 -16 53 C-16.17644043 53.80711426 -16.35288086 54.61422852 -16.53466797 55.44580078 C-21.94913379 81.15512264 -21.21638605 109.79406411 -6.8125 132.5546875 C5.17578315 150.5481602 21.39880238 161.74825113 40.13183594 171.97119141 C43.10908915 173.61078171 46.05346369 175.30593197 49 177 C49 177.33 49 177.66 49 178 C22.27 178 -4.46 178 -32 178 C-32.20151517 145.13063654 -32.20151517 145.13063654 -32.24414062 131.30859375 C-32.27375642 121.78192618 -32.30848581 112.25548047 -32.37719727 102.72900391 C-32.42722573 95.78948245 -32.45933657 88.85014177 -32.47044247 81.91044497 C-32.47692864 78.24000829 -32.49203909 74.57008849 -32.52865028 70.89981842 C-32.569308 66.79008108 -32.56993708 62.68122718 -32.56762695 58.57128906 C-32.59459152 56.77053169 -32.59459152 56.77053169 -32.62210083 54.93339539 C-32.57186515 46.63368888 -30.66854237 40.41156796 -27 33 C-26.67785176 32.3054987 -26.35570353 31.61099739 -26.02379322 30.89545059 C-21.69243132 21.70982643 -11.09440204 0 0 0 Z " fill="#CDCDCD" transform="translate(32,159)"/>
<path d="M0 0 C2.23618911 2.23618911 3.04980387 4.40378751 4.20581055 7.30639648 C11.83460255 26.28380469 26.59338443 37.88554699 45 46 C49.92077349 47.9177705 54.93530683 49.50573591 60 51 C60 51.33 60 51.66 60 52 C40.2 52 20.4 52 0 52 C0 34.84 0 17.68 0 0 Z " fill="#FEFEFE" transform="translate(0,285)"/>
</svg>
