<?xml version="1.0" encoding="UTF-8"?>
<svg version="1.1" xmlns="http://www.w3.org/2000/svg" width="187" height="181">
<path d="M0 0 C61.71 0 123.42 0 187 0 C187 59.73 187 119.46 187 181 C125.29 181 63.58 181 0 181 C0 121.27 0 61.54 0 0 Z " fill="#FDFDFD" transform="translate(0,0)"/>
<path d="M0 0 C1.84271484 -0.03867187 1.84271484 -0.03867187 3.72265625 -0.078125 C6.9375 0.25 6.9375 0.25 8.88671875 1.6328125 C9.9375 3.25 9.9375 3.25 9.6875 5.375 C8.9375 7.25 8.9375 7.25 7.9375 8.25 C6.52143982 8.49899198 5.09567846 8.69337414 3.66796875 8.86328125 C-16.40642866 11.39066638 -33.61140533 15.9414189 -47.0625 32.25 C-51.77665894 38.94952828 -54.845619 45.13745999 -56.0625 53.25 C-55.63839844 52.54875 -55.21429688 51.8475 -54.77734375 51.125 C-44.32237358 34.21322408 -30.14134199 22.46105942 -10.78369141 16.86523438 C-6.1325706 15.81366211 -1.56710223 15.67550151 3.1875 15.6875 C4.69376953 15.69112549 4.69376953 15.69112549 6.23046875 15.69482422 C17.09331291 15.96220117 26.6942217 19.07659377 34.671875 26.8125 C37.24087482 29.73037634 38.75884521 31.99941649 39.3125 35.875 C38.9375 38.25 38.9375 38.25 37.75 40.125 C35.9375 41.25 35.9375 41.25 33.5390625 41.08984375 C30.25699257 40.03031667 29.4243639 38.75713151 27.5 35.9375 C22.54819687 29.21795639 16.93542736 26.19724413 8.9375 24.25 C4.96957709 23.81733675 1.0510086 23.78476701 -2.9375 23.8125 C-3.94941406 23.79251953 -4.96132812 23.77253906 -6.00390625 23.75195312 C-19.76634571 23.76076391 -31.56530145 29.75982821 -41.4375 39.1875 C-48.77788505 47.06938886 -50.96175353 53.47254199 -52.0625 64.25 C-51.07636719 63.60289063 -50.09023437 62.95578125 -49.07421875 62.2890625 C-44.97357587 59.95908154 -41.53528743 59.55205822 -36.875 59.625 C-35.76016235 59.63865601 -35.76016235 59.63865601 -34.62280273 59.65258789 C-22.53122143 60.15211066 -14.35653882 66.99266047 -6.0625 75.25 C-8.0425 72.61 -10.0225 69.97 -12.0625 67.25 C5.85731284 76.20990642 17.37274731 96.04901184 23.9375 114.25 C25.70238815 120.01150583 26.17505473 126.90915719 24.06640625 132.6015625 C22.84149912 134.68189658 21.52821477 136.4355274 19.9375 138.25 C19.46441406 138.80429688 18.99132812 139.35859375 18.50390625 139.9296875 C10.23723718 148.2169717 -1.28936063 148.68252567 -12.3125 148.8125 C-23.04336364 148.73494656 -32.12113795 147.17265962 -42.0625 143.25 C-42.85946289 142.9499707 -43.65642578 142.64994141 -44.47753906 142.34082031 C-58.22151908 137.13709804 -69.5795568 132.25481961 -76.0625 118.25 C-82.51682879 103.33658878 -79.87544233 85.03866642 -74.2109375 70.41796875 C-61.9172486 39.77205919 -41.80335827 14.71666021 -11.0625 1.25 C-7.4262204 0.0041034 -3.82494612 0.0482643 0 0 Z " fill="#1B202A" transform="translate(121.0625,16.75)"/>
<path d="M0 0 C9.13929114 3.91154246 17.09076559 12.47416698 23.125 20.125 C23.90037109 21.01832031 23.90037109 21.01832031 24.69140625 21.9296875 C27.37818289 25.22410027 28.14285227 26.75010233 27.9375 31.0625 C27.669375 32.073125 27.40125 33.08375 27.125 34.125 C21.39915402 35.32133313 17.26803417 34.82316329 11.6875 33.1875 C10.91124268 32.96441162 10.13498535 32.74132324 9.33520508 32.51147461 C3.78420543 30.82640002 -1.47426345 28.72784573 -6.6875 26.1875 C-7.338396 25.87627197 -7.98929199 25.56504395 -8.65991211 25.24438477 C-14.12664728 22.42453411 -18.82718781 18.08227184 -20.875 12.125 C-21.36776537 7.49300553 -20.74525842 4.81533225 -17.875 1.125 C-12.34688674 -2.29432868 -6.09210351 -1.37563628 0 0 Z " fill="#FAFBFB" transform="translate(92.875,91.875)"/>
<path d="M0 0 C-0.41831956 3.2419766 -1.34930647 5.75025506 -2.8125 8.625 C-9.26805897 22.71845476 -11.23429291 39.31132646 -6.25390625 53.9921875 C-1.41313534 65.60400557 8.9471932 72.78688274 19.69140625 78.5546875 C20.45324219 79.03164062 21.21507812 79.50859375 22 80 C22 80.66 22 81.32 22 82 C10.51336467 81.51120701 0.61543731 77.7821653 -8 70 C-16.37325017 59.51140242 -18.81697949 46.10193042 -18 33 C-16.94136196 24.94358505 -11.19513906 0 0 0 Z " fill="#222731" transform="translate(45,83)"/>
</svg>
