<?xml version="1.0" encoding="UTF-8"?>
<svg version="1.1" xmlns="http://www.w3.org/2000/svg" width="106" height="103">
<path d="M0 0 C11.50990953 8.53018676 18.71017717 20.85062308 21 35 C22.10728638 50.86400672 18.10067903 64.06614576 7.8125 76.25 C-1.94584129 86.54774709 -14.44561082 92.42248156 -28.609375 93.09375 C-42.8549091 92.69986426 -55.50535536 87.31888787 -65.74609375 77.47265625 C-75.01208831 67.30736239 -80.42435657 53.8561645 -80 40 C-78.49550407 25.69937026 -73.16371426 11.55142701 -61.82421875 2.20703125 C-42.9853227 -11.88458318 -19.68224101 -13.35963365 0 0 Z " fill="#E5E3FD" transform="translate(85,10)"/>
<path d="M0 0 C0 6.27 0 12.54 0 19 C5.94 19 11.88 19 18 19 C17.62581231 25.17409696 17.24379813 29.21212518 13 34 C7.89294385 38.26358307 2.70318184 40.40000904 -4 40 C-9.51711078 38.38291581 -14.21141208 35.338383 -18 31 C-20.92357033 25.29855221 -20.61533457 19.24801259 -20 13 C-16.44525626 4.85371225 -8.56086728 0 0 0 Z " fill="#9E91F7" transform="translate(55,32)"/>
<path d="M0 0 C6.63686382 0 9.0394505 0.99136831 14 5 C18.28522493 9.9444903 18.11692422 11.93539379 19 19 C12.73 19 6.46 19 0 19 C0 12.73 0 6.46 0 0 Z " fill="#9D8FF9" transform="translate(58,29)"/>
<path d="M0 0 C0.33 0 0.66 0 1 0 C1 6.27 1 12.54 1 19 C6.28 19 11.56 19 17 19 C16.67 19.99 16.34 20.98 16 22 C10.06 22 4.12 22 -2 22 C-2 16.06 -2 10.12 -2 4 C-1.34 4 -0.68 4 0 4 C0 2.68 0 1.36 0 0 Z " fill="#D3CDFD" transform="translate(57,29)"/>
<path d="M0 0 C6.75 0 6.75 0 10 2 C9 4 9 4 7 5 C7 4.34 7 3.68 7 3 C6.34 3 5.68 3 5 3 C5 2.34 5 1.68 5 1 C3.68 1 2.36 1 1 1 C1 6.61 1 12.22 1 18 C6.28 18 11.56 18 17 18 C15.3770361 13.64750591 13.74849671 9.3039919 12 5 C12.66 5 13.32 5 14 5 C18.09905722 9.9685542 18.13433598 12.07468788 19 19 C12.73 19 6.46 19 0 19 C0 12.73 0 6.46 0 0 Z " fill="#A095E9" transform="translate(58,29)"/>
<path d="M0 0 C0.625 1.8125 0.625 1.8125 1 4 C0.01 5.485 0.01 5.485 -1 7 C-1.45772063 9.73872955 -1.45772063 9.73872955 -1.625 12.6875 C-1.69976562 13.68136719 -1.77453125 14.67523438 -1.8515625 15.69921875 C-1.90054688 16.45847656 -1.94953125 17.21773437 -2 18 C-2.33 18 -2.66 18 -3 18 C-3.08150744 15.93816367 -3.1394194 13.87538651 -3.1875 11.8125 C-3.22230469 10.66394531 -3.25710937 9.51539063 -3.29296875 8.33203125 C-2.97622579 4.72960801 -2.08533398 2.90633161 0 0 Z " fill="#A397ED" transform="translate(38,40)"/>
</svg>
